<?xml version="1.0" encoding="UTF-8"?>
<!DOCTYPE svg PUBLIC "-//W3C//DTD SVG 1.1//EN" "http://www.w3.org/Graphics/SVG/1.1/DTD/svg11.dtd">
<svg xmlns="http://www.w3.org/2000/svg" version="1.1" width="512px" height="512px" style="shape-rendering:geometricPrecision; text-rendering:geometricPrecision; image-rendering:optimizeQuality; fill-rule:evenodd; clip-rule:evenodd" xmlns:xlink="http://www.w3.org/1999/xlink">
<g><path style="opacity:0.92" fill="#ffffff" d="M 206.5,11.5 C 239.168,11.3334 271.835,11.5 304.5,12C 355.265,17.7897 391.765,43.6231 414,89.5C 423.019,112.624 427.019,136.624 426,161.5C 429.418,167.337 433.084,173.004 437,178.5C 439.837,183.172 441.837,188.172 443,193.5C 443.051,217.208 443.717,240.875 445,264.5C 446.497,268.165 448.497,271.498 451,274.5C 461.733,284.564 471.733,295.23 481,306.5C 489.893,324.006 489.559,341.34 480,358.5C 467,374.167 454,389.833 441,405.5C 438.017,419.375 435.684,433.375 434,447.5C 430.864,463.973 421.698,475.806 406.5,483C 391.908,488.197 377.241,493.197 362.5,498C 338.105,502.55 319.939,494.05 308,472.5C 296.641,479.763 284.474,485.263 271.5,489C 257.224,491.653 243.224,490.653 229.5,486C 220.62,481.643 211.787,477.143 203,472.5C 191.057,494.052 172.89,502.552 148.5,498C 132.273,492.925 116.273,487.258 100.5,481C 89.2566,474.427 81.7566,464.927 78,452.5C 75.7964,436.739 73.1298,421.072 70,405.5C 59.4168,391.579 48.0835,378.246 36,365.5C 20.1748,344.287 19.5081,322.62 34,300.5C 42.6667,291.833 51.3333,283.167 60,274.5C 62.503,271.498 64.503,268.165 66,264.5C 67.2825,240.875 67.9492,217.208 68,193.5C 69.1635,188.172 71.1635,183.172 74,178.5C 77.9158,173.004 81.5825,167.337 85,161.5C 81.8609,113.881 97.6942,74.0472 132.5,42C 154.105,24.3627 178.772,14.196 206.5,11.5 Z M 206.5,19.5 C 241.861,19.0547 277.195,19.5547 312.5,21C 360.977,30.4843 393.811,58.3176 411,104.5C 412.647,109.754 413.98,115.087 415,120.5C 416.782,135.857 417.782,151.19 418,166.5C 410.749,170.917 402.916,173.751 394.5,175C 301.833,175.667 209.167,175.667 116.5,175C 107.607,173.874 99.6072,170.707 92.5,165.5C 93.376,152.866 94.2094,140.2 95,127.5C 103.531,76.6385 132.031,42.4719 180.5,25C 189.193,22.6129 197.86,20.7795 206.5,19.5 Z M 87.5,173.5 C 96.2006,178.345 105.534,181.512 115.5,183C 208.833,183.667 302.167,183.667 395.5,183C 405.194,181.714 414.194,178.547 422.5,173.5C 426.915,178.26 430.581,183.594 433.5,189.5C 426.529,194.318 418.862,197.484 410.5,199C 307.167,199.667 203.833,199.667 100.5,199C 92.1376,197.484 84.4709,194.318 77.5,189.5C 80.4643,183.883 83.7976,178.55 87.5,173.5 Z M 75.5,198.5 C 80.9069,201.415 86.5736,203.748 92.5,205.5C 93.0637,220.875 93.897,236.209 95,251.5C 98.7666,262.205 103.933,272.039 110.5,281C 112.278,281.704 114.112,282.204 116,282.5C 156.997,265.086 197.83,247.253 238.5,229C 249.833,223 261.167,223 272.5,229C 311.417,246.528 350.417,263.861 389.5,281C 395.819,283.561 400.986,282.061 405,276.5C 408.941,268.284 412.608,259.951 416,251.5C 417.103,236.209 417.936,220.875 418.5,205.5C 424.292,203.847 429.792,201.514 435,198.5C 435.054,220.875 435.721,243.209 437,265.5C 437.899,269.538 439.566,273.205 442,276.5C 451.303,286.804 460.97,296.804 471,306.5C 482.792,324.656 482.125,342.323 469,359.5C 457.157,373.207 445.323,386.874 433.5,400.5C 420.453,394.657 407.786,388.157 395.5,381C 389.841,376.499 385.507,370.999 382.5,364.5C 387.628,362.851 391.794,359.851 395,355.5C 406,339.167 417,322.833 428,306.5C 432.411,296.272 433.078,285.939 430,275.5C 426.486,271.229 423.986,271.729 422.5,277C 424.744,286.986 423.578,296.486 419,305.5C 408.086,320.993 397.419,336.66 387,352.5C 379.811,357.864 372.644,357.697 365.5,352C 333.996,333.747 302.329,315.747 270.5,298C 260.5,294.667 250.5,294.667 240.5,298C 206.005,317.08 171.671,336.413 137.5,356C 132.399,357.076 127.899,355.91 124,352.5C 113.581,336.66 102.914,320.993 92,305.5C 86.8835,296.367 85.7168,286.867 88.5,277C 87.0137,271.729 84.5137,271.229 81,275.5C 77.922,285.939 78.5887,296.272 83,306.5C 94,322.833 105,339.167 116,355.5C 119.206,359.851 123.372,362.851 128.5,364.5C 125.493,370.999 121.159,376.499 115.5,381C 103.272,388.281 90.6048,394.781 77.5,400.5C 64.8832,385.378 52.0499,370.378 39,355.5C 29.4634,340.384 29.1301,325.05 38,309.5C 48.3333,298.5 58.6667,287.5 69,276.5C 71.434,273.205 73.1007,269.538 74,265.5C 75.4457,243.211 75.9457,220.878 75.5,198.5 Z M 248.5,303.5 C 255.361,302.965 262.028,303.798 268.5,306C 300.5,324.333 332.5,342.667 364.5,361C 366.957,362.562 369.624,363.562 372.5,364C 377.836,375.02 385.503,384.02 395.5,391C 407.044,396.939 418.711,402.606 430.5,408C 429.625,422.14 427.792,436.307 425,450.5C 421.155,462.7 413.322,471.2 401.5,476C 385.009,482.387 368.176,487.553 351,491.5C 332.111,490.611 319.444,481.277 313,463.5C 310.841,452.703 308.174,442.036 305,431.5C 291.959,406.563 271.459,396.396 243.5,401C 226.083,405.125 213.583,415.291 206,431.5C 203.04,440.674 200.706,450.008 199,459.5C 192.603,481.946 177.77,492.446 154.5,491C 139.363,486.399 124.363,481.399 109.5,476C 97.6784,471.2 89.8451,462.7 86,450.5C 83.4314,436.52 81.4314,422.52 80,408.5C 93.0357,402.399 105.869,395.899 118.5,389C 127.006,382.159 133.672,373.825 138.5,364C 146.815,360.759 154.648,356.592 162,351.5C 172.472,357.243 183.639,359.41 195.5,358C 210.556,353.537 225.556,348.87 240.5,344C 250.5,340.667 260.5,340.667 270.5,344C 285.444,348.87 300.444,353.537 315.5,358C 320.167,358.667 324.833,358.667 329.5,358C 331.648,355.925 331.982,353.592 330.5,351C 325.833,350.667 321.167,350.333 316.5,350C 301.739,345.643 287.072,340.976 272.5,336C 262.579,333.196 252.579,332.863 242.5,335C 226.561,340.202 210.561,345.202 194.5,350C 186.616,351.403 179.283,350.07 172.5,346C 197.529,331.102 222.863,316.936 248.5,303.5 Z"/></g>
<g><path style="opacity:0.824" fill="#ffffff" d="M 30.5,57.5 C 32.9892,57.2978 35.3225,57.7978 37.5,59C 44.6169,63.7825 51.4503,68.9492 58,74.5C 58.6655,77.4963 57.4989,79.4963 54.5,80.5C 45.0856,75.1324 36.419,68.7991 28.5,61.5C 29.1799,60.1401 29.8466,58.8068 30.5,57.5 Z"/></g>
<g><path style="opacity:0.823" fill="#ffffff" d="M 471.5,57.5 C 476.709,56.7052 478.709,58.7052 477.5,63.5C 470.646,69.5217 463.646,75.355 456.5,81C 450.92,82.261 449.087,80.0943 451,74.5C 458.023,68.969 464.857,63.3023 471.5,57.5 Z"/></g>
<g><path style="opacity:0.832" fill="#ffffff" d="M 36.5,150.5 C 39.3646,150.055 41.8646,150.722 44,152.5C 44.624,154.464 44.124,156.131 42.5,157.5C 34.8867,160.154 27.2201,162.654 19.5,165C 16.9009,165.769 14.4009,165.602 12,164.5C 11.2571,162.559 11.4238,160.726 12.5,159C 20.6087,156.15 28.6087,153.317 36.5,150.5 Z"/></g>
<g><path style="opacity:0.836" fill="#ffffff" d="M 467.5,151.5 C 477.988,152.831 488.321,154.998 498.5,158C 500.399,161.681 499.399,164.181 495.5,165.5C 486.547,163.179 477.547,161.012 468.5,159C 466.285,156.758 465.952,154.258 467.5,151.5 Z"/></g>
<g><path style="opacity:0.836" fill="#ffffff" d="M 54.5,312.5 C 56.7925,312.244 58.9592,312.577 61,313.5C 68.5445,332.267 78.8778,349.267 92,364.5C 94.5606,370.186 92.7273,372.353 86.5,371C 72.5216,355.563 61.6883,338.063 54,318.5C 53.5099,316.455 53.6765,314.455 54.5,312.5 Z"/></g>
<g><path style="opacity:0.834" fill="#ffffff" d="M 450.5,312.5 C 452.604,312.201 454.604,312.534 456.5,313.5C 456.987,314.446 457.32,315.446 457.5,316.5C 449.92,336.842 438.92,355.008 424.5,371C 418.273,372.353 416.439,370.186 419,364.5C 432.301,348.903 442.801,331.57 450.5,312.5 Z"/></g>
<g><path style="opacity:0.952" fill="#ffffff" d="M 157.5,434.5 C 176.692,436.855 184.525,447.522 181,466.5C 174.279,480.744 163.445,485.244 148.5,480C 137.192,473.774 133.026,464.274 136,451.5C 139.754,441.388 146.921,435.722 157.5,434.5 Z"/></g>
<g><path style="opacity:0.952" fill="#ffffff" d="M 350.5,434.5 C 373.452,438.06 380.619,450.727 372,472.5C 358.945,485.751 345.945,485.751 333,472.5C 325.806,459.893 327.64,448.726 338.5,439C 342.301,436.584 346.301,435.084 350.5,434.5 Z"/></g>
</svg>
